<?xml version="1.0" encoding="UTF-8" standalone="no"?>
<!DOCTYPE svg PUBLIC "-//W3C//DTD SVG 1.1//EN"
 "http://www.w3.org/Graphics/SVG/1.1/DTD/svg11.dtd">
<!-- Generated by graphviz version 2.40.1 (20161225.0304)
 -->
<!-- Title: G Pages: 1 -->
<svg width="787pt" height="618pt"
 viewBox="0.00 0.00 787.02 617.67" xmlns="http://www.w3.org/2000/svg" xmlns:xlink="http://www.w3.org/1999/xlink">
<g id="graph0" class="graph" transform="scale(1 1) rotate(0) translate(4 613.6711)">
<title>G</title><style>.edge>path:hover{stroke-width:8}</style>
<polygon fill="#ffffff" stroke="transparent" points="-4,4 -4,-613.6711 783.0181,-613.6711 783.0181,4 -4,4"/>
<!-- restapiboys_utils -->
<g id="node1" class="node">
<title>restapiboys_utils</title><style>.edge>path:hover{stroke-width:8}</style>
<ellipse fill="#06f9a8" stroke="#000000" cx="170" cy="-366.0315" rx="49.4949" ry="21.4286"/>
<text text-anchor="middle" x="170" y="-369.0315" font-family="Helvetica,sans-Serif" font-size="10.00" fill="#000000">restapiboys.</text>
<text text-anchor="middle" x="170" y="-358.0315" font-family="Helvetica,sans-Serif" font-size="10.00" fill="#000000">utils</text>
</g>
<!-- restapiboys_endpoints -->
<g id="node2" class="node">
<title>restapiboys_endpoints</title><style>.edge>path:hover{stroke-width:8}</style>
<ellipse fill="#28a37a" stroke="#000000" cx="583" cy="-209.1787" rx="49.4949" ry="21.4286"/>
<text text-anchor="middle" x="583" y="-212.1787" font-family="Helvetica,sans-Serif" font-size="10.00" fill="#ffffff">restapiboys.</text>
<text text-anchor="middle" x="583" y="-201.1787" font-family="Helvetica,sans-Serif" font-size="10.00" fill="#ffffff">endpoints</text>
</g>
<!-- restapiboys_utils&#45;&gt;restapiboys_endpoints -->
<g id="edge27" class="edge">
<title>restapiboys_utils&#45;&gt;restapiboys_endpoints</title><style>.edge>path:hover{stroke-width:8}</style>
<path fill="none" stroke="#000000" d="M219.198,-362.9178C270.1101,-357.807 350.3827,-344.3282 410,-308.8183 431.7483,-295.8644 427.4067,-281.1129 448,-266.3919 462.7956,-255.8154 503.1355,-239.2204 535.8931,-226.621"/>
<polygon fill="#06f9a8" stroke="#000000" points="537.2451,-229.8513 545.3403,-223.0163 534.7496,-223.3112 537.2451,-229.8513"/>
</g>
<!-- restapiboys_config -->
<g id="node4" class="node">
<title>restapiboys_config</title><style>.edge>path:hover{stroke-width:8}</style>
<ellipse fill="#2fbc8d" stroke="#000000" cx="170" cy="-287.6051" rx="49.4949" ry="21.4286"/>
<text text-anchor="middle" x="170" y="-290.6051" font-family="Helvetica,sans-Serif" font-size="10.00" fill="#000000">restapiboys.</text>
<text text-anchor="middle" x="170" y="-279.6051" font-family="Helvetica,sans-Serif" font-size="10.00" fill="#000000">config</text>
</g>
<!-- restapiboys_utils&#45;&gt;restapiboys_config -->
<g id="edge26" class="edge">
<title>restapiboys_utils&#45;&gt;restapiboys_config</title><style>.edge>path:hover{stroke-width:8}</style>
<path fill="none" stroke="#000000" d="M170,-344.6012C170,-336.7339 170,-327.655 170,-319.0886"/>
<polygon fill="#06f9a8" stroke="#000000" points="173.5001,-319.0095 170,-309.0096 166.5001,-319.0096 173.5001,-319.0095"/>
</g>
<!-- restapiboys_fields -->
<g id="node6" class="node">
<title>restapiboys_fields</title><style>.edge>path:hover{stroke-width:8}</style>
<ellipse fill="#2fbc8d" stroke="#000000" cx="506" cy="-287.6051" rx="49.4949" ry="21.4286"/>
<text text-anchor="middle" x="506" y="-290.6051" font-family="Helvetica,sans-Serif" font-size="10.00" fill="#000000">restapiboys.</text>
<text text-anchor="middle" x="506" y="-279.6051" font-family="Helvetica,sans-Serif" font-size="10.00" fill="#000000">fields</text>
</g>
<!-- restapiboys_utils&#45;&gt;restapiboys_fields -->
<g id="edge28" class="edge">
<title>restapiboys_utils&#45;&gt;restapiboys_fields</title><style>.edge>path:hover{stroke-width:8}</style>
<path fill="none" stroke="#000000" d="M216.2835,-358.0578C270.9059,-348.251 364.2661,-330.2435 443,-308.8183 447.9538,-307.4703 453.0882,-305.9502 458.191,-304.3586"/>
<polygon fill="#06f9a8" stroke="#000000" points="459.4591,-307.6275 467.9089,-301.2361 457.3176,-300.963 459.4591,-307.6275"/>
</g>
<!-- restapiboys_cli_start -->
<g id="node8" class="node">
<title>restapiboys_cli_start</title><style>.edge>path:hover{stroke-width:8}</style>
<ellipse fill="#38a883" stroke="#000000" cx="104" cy="-122.9741" rx="49.4949" ry="28.9828"/>
<text text-anchor="middle" x="104" y="-131.4741" font-family="Helvetica,sans-Serif" font-size="10.00" fill="#000000">restapiboys.</text>
<text text-anchor="middle" x="104" y="-120.4741" font-family="Helvetica,sans-Serif" font-size="10.00" fill="#000000">cli.</text>
<text text-anchor="middle" x="104" y="-109.4741" font-family="Helvetica,sans-Serif" font-size="10.00" fill="#000000">start</text>
</g>
<!-- restapiboys_utils&#45;&gt;restapiboys_cli_start -->
<g id="edge25" class="edge">
<title>restapiboys_utils&#45;&gt;restapiboys_cli_start</title><style>.edge>path:hover{stroke-width:8}</style>
<path fill="none" stroke="#000000" d="M141.0293,-348.6373C121.8264,-334.942 99.0857,-313.8123 93,-287.6051"/>
</g>
<!-- restapiboys_server -->
<g id="node9" class="node">
<title>restapiboys_server</title><style>.edge>path:hover{stroke-width:8}</style>
<ellipse fill="#3a886e" stroke="#000000" cx="286" cy="-28.9914" rx="49.4949" ry="21.4286"/>
<text text-anchor="middle" x="286" y="-31.9914" font-family="Helvetica,sans-Serif" font-size="10.00" fill="#ffffff">restapiboys.</text>
<text text-anchor="middle" x="286" y="-20.9914" font-family="Helvetica,sans-Serif" font-size="10.00" fill="#ffffff">server</text>
</g>
<!-- restapiboys_utils&#45;&gt;restapiboys_server -->
<g id="edge29" class="edge">
<title>restapiboys_utils&#45;&gt;restapiboys_server</title><style>.edge>path:hover{stroke-width:8}</style>
<path fill="none" stroke="#000000" d="M194.9479,-347.424C206.7635,-337.2986 220.0072,-323.7915 228,-308.8183 249.2298,-269.0477 246.8693,-254.2607 247,-209.1787"/>
<path fill="none" stroke="#000000" d="M247,-209.1787C250.0361,-167.4185 199.2617,-163.6963 209,-122.9741"/>
</g>
<!-- restapiboys_validation -->
<g id="node11" class="node">
<title>restapiboys_validation</title><style>.edge>path:hover{stroke-width:8}</style>
<ellipse fill="#2b8265" stroke="#000000" cx="286" cy="-122.9741" rx="49.4949" ry="21.4286"/>
<text text-anchor="middle" x="286" y="-125.9741" font-family="Helvetica,sans-Serif" font-size="10.00" fill="#ffffff">restapiboys.</text>
<text text-anchor="middle" x="286" y="-114.9741" font-family="Helvetica,sans-Serif" font-size="10.00" fill="#ffffff">validation</text>
</g>
<!-- restapiboys_utils&#45;&gt;restapiboys_validation -->
<g id="edge30" class="edge">
<title>restapiboys_utils&#45;&gt;restapiboys_validation</title><style>.edge>path:hover{stroke-width:8}</style>
<path fill="none" stroke="#000000" d="M247,-209.1787C247.0585,-188.9935 256.0469,-168.3241 265.3787,-152.2862"/>
<polygon fill="#06f9a8" stroke="#000000" points="268.5781,-153.7661 270.848,-143.4172 262.6199,-150.0918 268.5781,-153.7661"/>
</g>
<!-- restapiboys_endpoints&#45;&gt;restapiboys_server -->
<g id="edge9" class="edge">
<title>restapiboys_endpoints&#45;&gt;restapiboys_server</title><style>.edge>path:hover{stroke-width:8}</style>
<path fill="none" stroke="#000000" d="M630.066,-202.5012C683.6532,-192.5612 760.8848,-169.7796 737,-122.9741"/>
<path fill="none" stroke="#000000" d="M737,-122.9741C701.7023,-53.8035 460.4527,-35.4942 346.0092,-30.6851"/>
<polygon fill="#28a37a" stroke="#000000" points="345.8033,-27.1742 335.6718,-30.273 345.5244,-34.1686 345.8033,-27.1742"/>
</g>
<!-- restapiboys_endpoints&#45;&gt;restapiboys_validation -->
<g id="edge10" class="edge">
<title>restapiboys_endpoints&#45;&gt;restapiboys_validation</title><style>.edge>path:hover{stroke-width:8}</style>
<path fill="none" stroke="#000000" d="M544.458,-195.8349C536.4023,-193.1489 527.9436,-190.4041 520,-187.9655 457.9109,-168.9051 385.817,-149.2511 338.2399,-136.6193"/>
<polygon fill="#28a37a" stroke="#000000" points="339.0348,-133.2092 328.472,-134.0331 337.2431,-139.976 339.0348,-133.2092"/>
</g>
<!-- restapiboys_log -->
<g id="node3" class="node">
<title>restapiboys_log</title><style>.edge>path:hover{stroke-width:8}</style>
<ellipse fill="#06efa1" stroke="#000000" cx="583" cy="-444.4579" rx="49.4949" ry="21.4286"/>
<text text-anchor="middle" x="583" y="-447.4579" font-family="Helvetica,sans-Serif" font-size="10.00" fill="#000000">restapiboys.</text>
<text text-anchor="middle" x="583" y="-436.4579" font-family="Helvetica,sans-Serif" font-size="10.00" fill="#000000">log</text>
</g>
<!-- restapiboys_log&#45;&gt;restapiboys_endpoints -->
<g id="edge20" class="edge">
<title>restapiboys_log&#45;&gt;restapiboys_endpoints</title><style>.edge>path:hover{stroke-width:8}</style>
<path fill="none" stroke="#000000" d="M583,-287.6051C579.456,-272.3436 579.098,-254.9564 579.7779,-240.4379"/>
<polygon fill="#06efa1" stroke="#000000" points="583.2714,-240.6502 580.4257,-230.4447 576.2861,-240.1973 583.2714,-240.6502"/>
</g>
<!-- restapiboys_log&#45;&gt;restapiboys_config -->
<g id="edge18" class="edge">
<title>restapiboys_log&#45;&gt;restapiboys_config</title><style>.edge>path:hover{stroke-width:8}</style>
<path fill="none" stroke="#000000" d="M93,-366.0315C81.0814,-343.0186 103.4837,-322.3491 127.1439,-308.014"/>
<polygon fill="#06efa1" stroke="#000000" points="128.9166,-311.0322 135.8565,-303.0267 125.439,-304.9571 128.9166,-311.0322"/>
</g>
<!-- restapiboys_log&#45;&gt;restapiboys_fields -->
<g id="edge21" class="edge">
<title>restapiboys_log&#45;&gt;restapiboys_fields</title><style>.edge>path:hover{stroke-width:8}</style>
<path fill="none" stroke="#000000" d="M583,-423.1546C583,-407.3812 583,-385.3658 583,-366.0315"/>
<path fill="none" stroke="#000000" d="M583,-366.0315C583,-342.3694 564.932,-323.2287 546.3006,-309.7814"/>
<polygon fill="#06efa1" stroke="#000000" points="548.0077,-306.7106 537.7634,-304.0077 544.0862,-312.5091 548.0077,-306.7106"/>
</g>
<!-- restapiboys_directives -->
<g id="node7" class="node">
<title>restapiboys_directives</title><style>.edge>path:hover{stroke-width:8}</style>
<ellipse fill="#3ab089" stroke="#000000" cx="660" cy="-287.6051" rx="49.4949" ry="21.4286"/>
<text text-anchor="middle" x="660" y="-290.6051" font-family="Helvetica,sans-Serif" font-size="10.00" fill="#000000">restapiboys.</text>
<text text-anchor="middle" x="660" y="-279.6051" font-family="Helvetica,sans-Serif" font-size="10.00" fill="#000000">directives</text>
</g>
<!-- restapiboys_log&#45;&gt;restapiboys_directives -->
<g id="edge19" class="edge">
<title>restapiboys_log&#45;&gt;restapiboys_directives</title><style>.edge>path:hover{stroke-width:8}</style>
<path fill="none" stroke="#000000" d="M583,-366.0315C583,-342.3694 601.068,-323.2287 619.6994,-309.7814"/>
<polygon fill="#06efa1" stroke="#000000" points="621.9138,-312.5091 628.2366,-304.0077 617.9923,-306.7106 621.9138,-312.5091"/>
</g>
<!-- restapiboys_log&#45;&gt;restapiboys_cli_start -->
<g id="edge17" class="edge">
<title>restapiboys_log&#45;&gt;restapiboys_cli_start</title><style>.edge>path:hover{stroke-width:8}</style>
<path fill="none" stroke="#000000" d="M533.3607,-442.8161C427.7443,-438.6226 184.4917,-425.0427 112,-387.2447 100.7771,-381.393 98.8208,-377.2706 93,-366.0315"/>
<path fill="none" stroke="#000000" d="M93,-366.0315C76.97,-335.0801 100.8844,-321.5579 93,-287.6051"/>
<path fill="none" stroke="#000000" d="M93,-287.6051C83.1936,-245.3756 88.8265,-195.5384 95.0711,-161.8478"/>
<polygon fill="#06efa1" stroke="#000000" points="98.5249,-162.4231 97.0123,-151.9368 91.6554,-161.0776 98.5249,-162.4231"/>
</g>
<!-- restapiboys_log&#45;&gt;restapiboys_server -->
<g id="edge23" class="edge">
<title>restapiboys_log&#45;&gt;restapiboys_server</title><style>.edge>path:hover{stroke-width:8}</style>
<path fill="none" stroke="#000000" d="M627.4278,-434.8693C656.4408,-426.5853 693.3721,-411.9359 718,-387.2447 801.1597,-303.8713 790.5248,-227.8633 737,-122.9741"/>
</g>
<!-- restapiboys_http -->
<g id="node10" class="node">
<title>restapiboys_http</title><style>.edge>path:hover{stroke-width:8}</style>
<ellipse fill="#16ca8e" stroke="#000000" cx="660" cy="-366.0315" rx="49.4949" ry="21.4286"/>
<text text-anchor="middle" x="660" y="-369.0315" font-family="Helvetica,sans-Serif" font-size="10.00" fill="#000000">restapiboys.</text>
<text text-anchor="middle" x="660" y="-358.0315" font-family="Helvetica,sans-Serif" font-size="10.00" fill="#000000">http</text>
</g>
<!-- restapiboys_log&#45;&gt;restapiboys_http -->
<g id="edge22" class="edge">
<title>restapiboys_log&#45;&gt;restapiboys_http</title><style>.edge>path:hover{stroke-width:8}</style>
<path fill="none" stroke="#000000" d="M602.4304,-424.6676C611.8232,-415.1008 623.2419,-403.4705 633.4255,-393.0983"/>
<polygon fill="#06efa1" stroke="#000000" points="636.0674,-395.4032 640.5759,-385.8155 631.0725,-390.4991 636.0674,-395.4032"/>
</g>
<!-- restapiboys_log&#45;&gt;restapiboys_validation -->
<g id="edge24" class="edge">
<title>restapiboys_log&#45;&gt;restapiboys_validation</title><style>.edge>path:hover{stroke-width:8}</style>
<path fill="none" stroke="#000000" d="M583,-366.0315C583,-331.1753 590.8844,-321.5579 583,-287.6051"/>
<path fill="none" stroke="#000000" d="M583,-287.6051C571.9507,-240.0233 518.255,-256.4643 506,-209.1787"/>
</g>
<!-- restapiboys_config&#45;&gt;restapiboys_cli_start -->
<g id="edge6" class="edge">
<title>restapiboys_config&#45;&gt;restapiboys_cli_start</title><style>.edge>path:hover{stroke-width:8}</style>
<path fill="none" stroke="#000000" d="M186.8629,-267.6338C197.8229,-252.5224 209.9234,-230.7519 209,-209.1787"/>
<path fill="none" stroke="#000000" d="M209,-209.1787C207.7008,-178.8252 181.1247,-157.1922 155.0381,-143.189"/>
<polygon fill="#2fbc8d" stroke="#000000" points="156.3766,-139.9438 145.8735,-138.5522 153.2164,-146.1898 156.3766,-139.9438"/>
</g>
<!-- restapiboys_config&#45;&gt;restapiboys_server -->
<g id="edge7" class="edge">
<title>restapiboys_config&#45;&gt;restapiboys_server</title><style>.edge>path:hover{stroke-width:8}</style>
<path fill="none" stroke="#000000" d="M209,-209.1787C207.3616,-170.9006 200.0891,-160.2366 209,-122.9741"/>
<path fill="none" stroke="#000000" d="M209,-122.9741C215.4819,-95.8687 235.7838,-71.7078 253.9136,-54.6721"/>
<polygon fill="#2fbc8d" stroke="#000000" points="256.4267,-57.1186 261.5039,-47.8195 251.7359,-51.9228 256.4267,-57.1186"/>
</g>
<!-- restapiboys_cli_index -->
<g id="node5" class="node">
<title>restapiboys_cli_index</title><style>.edge>path:hover{stroke-width:8}</style>
<ellipse fill="#439d7f" stroke="#000000" cx="104" cy="-28.9914" rx="49.4949" ry="28.9828"/>
<text text-anchor="middle" x="104" y="-37.4914" font-family="Helvetica,sans-Serif" font-size="10.00" fill="#ffffff">restapiboys.</text>
<text text-anchor="middle" x="104" y="-26.4914" font-family="Helvetica,sans-Serif" font-size="10.00" fill="#ffffff">cli.</text>
<text text-anchor="middle" x="104" y="-15.4914" font-family="Helvetica,sans-Serif" font-size="10.00" fill="#ffffff">index</text>
</g>
<!-- restapiboys_fields&#45;&gt;restapiboys_endpoints -->
<g id="edge11" class="edge">
<title>restapiboys_fields&#45;&gt;restapiboys_endpoints</title><style>.edge>path:hover{stroke-width:8}</style>
<path fill="none" stroke="#000000" d="M525.4304,-267.8148C534.8232,-258.248 546.2419,-246.6177 556.4255,-236.2455"/>
<polygon fill="#2fbc8d" stroke="#000000" points="559.0674,-238.5504 563.5759,-228.9627 554.0725,-233.6463 559.0674,-238.5504"/>
</g>
<!-- restapiboys_fields&#45;&gt;restapiboys_validation -->
<g id="edge12" class="edge">
<title>restapiboys_fields&#45;&gt;restapiboys_validation</title><style>.edge>path:hover{stroke-width:8}</style>
<path fill="none" stroke="#000000" d="M508.8552,-266.2702C510.3123,-250.2889 510.8848,-228.0265 506,-209.1787"/>
</g>
<!-- restapiboys_directives&#45;&gt;restapiboys_endpoints -->
<g id="edge8" class="edge">
<title>restapiboys_directives&#45;&gt;restapiboys_endpoints</title><style>.edge>path:hover{stroke-width:8}</style>
<path fill="none" stroke="#000000" d="M640.5696,-267.8148C631.1768,-258.248 619.7581,-246.6177 609.5745,-236.2455"/>
<polygon fill="#3ab089" stroke="#000000" points="611.9275,-233.6463 602.4241,-228.9627 606.9326,-238.5504 611.9275,-233.6463"/>
</g>
<!-- restapiboys_cli_start&#45;&gt;restapiboys_cli_index -->
<g id="edge5" class="edge">
<title>restapiboys_cli_start&#45;&gt;restapiboys_cli_index</title><style>.edge>path:hover{stroke-width:8}</style>
<path fill="none" stroke="#000000" d="M104,-93.7526C104,-85.7078 104,-76.8481 104,-68.3329"/>
<polygon fill="#38a883" stroke="#000000" points="107.5001,-68.1948 104,-58.1949 100.5001,-68.1949 107.5001,-68.1948"/>
</g>
<!-- restapiboys_http&#45;&gt;restapiboys_endpoints -->
<g id="edge14" class="edge">
<title>restapiboys_http&#45;&gt;restapiboys_endpoints</title><style>.edge>path:hover{stroke-width:8}</style>
<path fill="none" stroke="#000000" d="M691.7634,-349.629C712.9739,-336.1648 737,-314.8912 737,-287.6051"/>
<path fill="none" stroke="#000000" d="M737,-287.6051C737,-243.0688 685.2241,-223.8122 641.7151,-215.4928"/>
<polygon fill="#16ca8e" stroke="#000000" points="642.1809,-212.0212 631.7266,-213.741 640.9716,-218.9159 642.1809,-212.0212"/>
</g>
<!-- restapiboys_http&#45;&gt;restapiboys_directives -->
<g id="edge13" class="edge">
<title>restapiboys_http&#45;&gt;restapiboys_directives</title><style>.edge>path:hover{stroke-width:8}</style>
<path fill="none" stroke="#000000" d="M660,-344.6012C660,-336.7339 660,-327.655 660,-319.0886"/>
<polygon fill="#16ca8e" stroke="#000000" points="663.5001,-319.0095 660,-309.0096 656.5001,-319.0096 663.5001,-319.0095"/>
</g>
<!-- restapiboys_http&#45;&gt;restapiboys_server -->
<g id="edge15" class="edge">
<title>restapiboys_http&#45;&gt;restapiboys_server</title><style>.edge>path:hover{stroke-width:8}</style>
<path fill="none" stroke="#000000" d="M737,-209.1787C715.2774,-177.6188 754.4148,-157.1007 737,-122.9741"/>
</g>
<!-- restapiboys_http&#45;&gt;restapiboys_validation -->
<g id="edge16" class="edge">
<title>restapiboys_http&#45;&gt;restapiboys_validation</title><style>.edge>path:hover{stroke-width:8}</style>
<path fill="none" stroke="#000000" d="M737,-287.6051C737,-252.7489 756.7626,-237.891 737,-209.1787"/>
<path fill="none" stroke="#000000" d="M737,-209.1787C693.2808,-145.6609 458.0777,-128.9139 345.7689,-124.5223"/>
<polygon fill="#16ca8e" stroke="#000000" points="345.7423,-121.019 335.6195,-124.1461 345.4829,-128.0142 345.7423,-121.019"/>
</g>
<!-- restapiboys_validation&#45;&gt;restapiboys_server -->
<g id="edge31" class="edge">
<title>restapiboys_validation&#45;&gt;restapiboys_server</title><style>.edge>path:hover{stroke-width:8}</style>
<path fill="none" stroke="#000000" d="M286,-101.648C286,-89.5115 286,-74.0804 286,-60.5635"/>
<polygon fill="#2b8265" stroke="#000000" points="289.5001,-60.2331 286,-50.2331 282.5001,-60.2332 289.5001,-60.2331"/>
</g>
<!-- arrow -->
<g id="node12" class="node">
<title>arrow</title><style>.edge>path:hover{stroke-width:8}</style>
<polygon fill="#b65353" stroke="#000000" points="329,-305.6051 326,-309.6051 305,-309.6051 302,-305.6051 275,-305.6051 275,-269.6051 329,-269.6051 329,-305.6051"/>
<text text-anchor="middle" x="302" y="-285.1051" font-family="Helvetica,sans-Serif" font-size="10.00" fill="#ffffff">arrow</text>
</g>
<!-- arrow&#45;&gt;restapiboys_validation -->
<g id="edge1" class="edge">
<title>arrow&#45;&gt;restapiboys_validation</title><style>.edge>path:hover{stroke-width:8}</style>
<path fill="none" stroke="#000000" d="M329.207,-270.7962C332.132,-269.2241 335.0991,-267.7236 338,-266.3919 409.6854,-233.4844 525.7889,-285.5338 506,-209.1787"/>
<path fill="none" stroke="#000000" d="M506,-209.1787C497.2626,-175.4655 403.3315,-148.5504 341.0635,-134.2469"/>
<polygon fill="#b65353" stroke="#000000" points="341.5033,-130.7583 330.9787,-131.9763 339.9657,-137.5874 341.5033,-130.7583"/>
</g>
<!-- colorama -->
<g id="node13" class="node">
<title>colorama</title><style>.edge>path:hover{stroke-width:8}</style>
<polygon fill="#b69553" stroke="#000000" points="589,-609.6711 586,-613.6711 565,-613.6711 562,-609.6711 533,-609.6711 533,-573.6711 589,-573.6711 589,-609.6711"/>
<text text-anchor="middle" x="561" y="-589.1711" font-family="Helvetica,sans-Serif" font-size="10.00" fill="#000000">colorama</text>
</g>
<!-- colorama&#45;&gt;restapiboys_log -->
<g id="edge2" class="edge">
<title>colorama&#45;&gt;restapiboys_log</title><style>.edge>path:hover{stroke-width:8}</style>
<path fill="none" stroke="#000000" d="M557.3579,-573.5073C555.1908,-558.5069 554.0506,-536.9511 561,-519.6711"/>
</g>
<!-- docopt -->
<g id="node14" class="node">
<title>docopt</title><style>.edge>path:hover{stroke-width:8}</style>
<polygon fill="#95b653" stroke="#000000" points="54,-305.6051 51,-309.6051 30,-309.6051 27,-305.6051 0,-305.6051 0,-269.6051 54,-269.6051 54,-305.6051"/>
<text text-anchor="middle" x="27" y="-285.1051" font-family="Helvetica,sans-Serif" font-size="10.00" fill="#000000">docopt</text>
</g>
<!-- docopt&#45;&gt;restapiboys_cli_index -->
<g id="edge3" class="edge">
<title>docopt&#45;&gt;restapiboys_cli_index</title><style>.edge>path:hover{stroke-width:8}</style>
<path fill="none" stroke="#000000" d="M25.1735,-269.5953C22.3436,-234.2441 19.6875,-153.994 46,-93.9828 51.3189,-81.852 59.7874,-70.4143 68.6278,-60.6155"/>
<polygon fill="#95b653" stroke="#000000" points="71.393,-62.7865 75.7442,-53.1264 66.3186,-57.9646 71.393,-62.7865"/>
</g>
<!-- httpagentparser -->
<g id="node15" class="node">
<title>httpagentparser</title><style>.edge>path:hover{stroke-width:8}</style>
<polygon fill="#53b653" stroke="#000000" points="673,-537.6711 670,-541.6711 649,-541.6711 646,-537.6711 589,-537.6711 589,-501.6711 673,-501.6711 673,-537.6711"/>
<text text-anchor="middle" x="631" y="-517.1711" font-family="Helvetica,sans-Serif" font-size="10.00" fill="#000000">httpagentparser</text>
</g>
<!-- httpagentparser&#45;&gt;restapiboys_http -->
<g id="edge4" class="edge">
<title>httpagentparser&#45;&gt;restapiboys_http</title><style>.edge>path:hover{stroke-width:8}</style>
<path fill="none" stroke="#000000" d="M653.2932,-501.3838C667.6796,-487.3219 683.3169,-466.6025 681,-444.4579"/>
<path fill="none" stroke="#000000" d="M681,-444.4579C679.3358,-428.552 675.0217,-411.3399 670.7335,-397.1037"/>
<polygon fill="#53b653" stroke="#000000" points="673.9961,-395.8117 667.6539,-387.3249 667.3194,-397.9144 673.9961,-395.8117"/>
</g>
<!-- simplejson -->
<g id="node16" class="node">
<title>simplejson</title><style>.edge>path:hover{stroke-width:8}</style>
<polygon fill="#4095c0" stroke="#000000" points="754.5,-537.6711 751.5,-541.6711 730.5,-541.6711 727.5,-537.6711 691.5,-537.6711 691.5,-501.6711 754.5,-501.6711 754.5,-537.6711"/>
<text text-anchor="middle" x="723" y="-517.1711" font-family="Helvetica,sans-Serif" font-size="10.00" fill="#000000">simplejson</text>
</g>
<!-- simplejson&#45;&gt;restapiboys_http -->
<g id="edge32" class="edge">
<title>simplejson&#45;&gt;restapiboys_http</title><style>.edge>path:hover{stroke-width:8}</style>
<path fill="none" stroke="#000000" d="M707.2039,-501.3785C696.25,-486.9979 683.2411,-465.8774 681,-444.4579"/>
</g>
<!-- slugify -->
<g id="node17" class="node">
<title>slugify</title><style>.edge>path:hover{stroke-width:8}</style>
<polygon fill="#4747c2" stroke="#000000" points="401,-305.6051 398,-309.6051 377,-309.6051 374,-305.6051 347,-305.6051 347,-269.6051 401,-269.6051 401,-305.6051"/>
<text text-anchor="middle" x="374" y="-285.1051" font-family="Helvetica,sans-Serif" font-size="10.00" fill="#ffffff">slugify</text>
</g>
<!-- slugify&#45;&gt;restapiboys_validation -->
<g id="edge33" class="edge">
<title>slugify&#45;&gt;restapiboys_validation</title><style>.edge>path:hover{stroke-width:8}</style>
<path fill="none" stroke="#000000" d="M401.0935,-273.2059C440.1625,-252.2117 507.5214,-215.0491 506,-209.1787"/>
</g>
<!-- termcolor -->
<g id="node18" class="node">
<title>termcolor</title><style>.edge>path:hover{stroke-width:8}</style>
<polygon fill="#9553b6" stroke="#000000" points="514.5,-609.6711 511.5,-613.6711 490.5,-613.6711 487.5,-609.6711 457.5,-609.6711 457.5,-573.6711 514.5,-573.6711 514.5,-609.6711"/>
<text text-anchor="middle" x="486" y="-589.1711" font-family="Helvetica,sans-Serif" font-size="10.00" fill="#ffffff">termcolor</text>
</g>
<!-- termcolor&#45;&gt;restapiboys_log -->
<g id="edge34" class="edge">
<title>termcolor&#45;&gt;restapiboys_log</title><style>.edge>path:hover{stroke-width:8}</style>
<path fill="none" stroke="#000000" d="M514.7165,-573.4897C531.8495,-560.7863 551.9755,-542.1111 561,-519.6711"/>
<path fill="none" stroke="#000000" d="M561,-519.6711C566.7037,-505.4886 571.6386,-489.2668 575.3809,-475.5279"/>
<polygon fill="#9553b6" stroke="#000000" points="578.8384,-476.1424 578.0032,-465.5805 572.0697,-474.358 578.8384,-476.1424"/>
</g>
<!-- yaml -->
<g id="node19" class="node">
<title>yaml</title><style>.edge>path:hover{stroke-width:8}</style>
<polygon fill="#b65395" stroke="#000000" points="197,-537.6711 194,-541.6711 173,-541.6711 170,-537.6711 143,-537.6711 143,-501.6711 197,-501.6711 197,-537.6711"/>
<text text-anchor="middle" x="170" y="-517.1711" font-family="Helvetica,sans-Serif" font-size="10.00" fill="#ffffff">yaml</text>
</g>
<!-- yaml&#45;&gt;restapiboys_utils -->
<g id="edge35" class="edge">
<title>yaml&#45;&gt;restapiboys_utils</title><style>.edge>path:hover{stroke-width:8}</style>
<path fill="none" stroke="#000000" d="M170,-501.4433C170,-475.917 170,-429.1402 170,-397.8126"/>
<polygon fill="#b65395" stroke="#000000" points="173.5001,-397.4361 170,-387.4361 166.5001,-397.4362 173.5001,-397.4361"/>
</g>
</g>
</svg>
